<mxfile host="app.diagrams.net" agent="Mozilla/5.0 (Windows NT 10.0; Win64; x64) AppleWebKit/537.36 (KHTML, like Gecko) Chrome/131.0.0.0 Safari/537.36" version="24.8.6">
  <diagram name="Page-1" id="_Yzt3oeUd9T533a0rmxe">
    <mxGraphModel dx="1050" dy="625" grid="1" gridSize="10" guides="1" tooltips="1" connect="1" arrows="1" fold="1" page="1" pageScale="1" pageWidth="1169" pageHeight="827" math="0" shadow="0">
      <root>
        <mxCell id="0" />
        <mxCell id="1" parent="0" />
        <mxCell id="Jqyn0Rg7wcx-pCNSzhji-6" style="edgeStyle=orthogonalEdgeStyle;rounded=0;orthogonalLoop=1;jettySize=auto;html=1;exitX=0;exitY=0.5;exitDx=0;exitDy=0;exitPerimeter=0;endArrow=oval;endFill=0;" parent="1" source="Jqyn0Rg7wcx-pCNSzhji-12" edge="1">
          <mxGeometry relative="1" as="geometry">
            <mxPoint x="230" y="180" as="targetPoint" />
            <mxPoint x="260" y="120" as="sourcePoint" />
          </mxGeometry>
        </mxCell>
        <mxCell id="Jqyn0Rg7wcx-pCNSzhji-7" style="edgeStyle=orthogonalEdgeStyle;rounded=0;orthogonalLoop=1;jettySize=auto;html=1;exitX=0;exitY=0.5;exitDx=0;exitDy=0;exitPerimeter=0;endArrow=oval;endFill=0;" parent="1" source="Jqyn0Rg7wcx-pCNSzhji-11" edge="1">
          <mxGeometry relative="1" as="geometry">
            <mxPoint x="230" y="230" as="targetPoint" />
            <mxPoint x="260" y="200" as="sourcePoint" />
          </mxGeometry>
        </mxCell>
        <mxCell id="Jqyn0Rg7wcx-pCNSzhji-8" style="edgeStyle=orthogonalEdgeStyle;rounded=0;orthogonalLoop=1;jettySize=auto;html=1;exitDx=0;exitDy=0;exitPerimeter=0;endArrow=oval;endFill=0;" parent="1" source="Jqyn0Rg7wcx-pCNSzhji-16" edge="1">
          <mxGeometry relative="1" as="geometry">
            <mxPoint x="230" y="280" as="targetPoint" />
          </mxGeometry>
        </mxCell>
        <mxCell id="Jqyn0Rg7wcx-pCNSzhji-20" style="edgeStyle=orthogonalEdgeStyle;rounded=0;orthogonalLoop=1;jettySize=auto;html=1;exitDx=0;exitDy=0;exitPerimeter=0;endArrow=none;endFill=0;entryX=0;entryY=0.625;entryDx=0;entryDy=0;entryPerimeter=0;" parent="1" source="Jqyn0Rg7wcx-pCNSzhji-105" target="Jqyn0Rg7wcx-pCNSzhji-44" edge="1">
          <mxGeometry relative="1" as="geometry">
            <mxPoint x="340" y="400" as="targetPoint" />
            <Array as="points">
              <mxPoint x="340" y="580" />
            </Array>
          </mxGeometry>
        </mxCell>
        <mxCell id="Jqyn0Rg7wcx-pCNSzhji-5" value="" style="verticalLabelPosition=bottom;shadow=0;dashed=0;align=center;html=1;verticalAlign=top;shape=mxgraph.electrical.logic_gates.inverter_2" parent="1" vertex="1">
          <mxGeometry x="270" y="260" width="70" height="40" as="geometry" />
        </mxCell>
        <mxCell id="Jqyn0Rg7wcx-pCNSzhji-9" value="" style="endArrow=none;html=1;rounded=0;exitDx=0;exitDy=0;exitPerimeter=0;" parent="1" source="Jqyn0Rg7wcx-pCNSzhji-111" edge="1">
          <mxGeometry width="50" height="50" relative="1" as="geometry">
            <mxPoint x="269.43" y="380" as="sourcePoint" />
            <mxPoint x="250" y="280" as="targetPoint" />
            <Array as="points" />
          </mxGeometry>
        </mxCell>
        <mxCell id="Jqyn0Rg7wcx-pCNSzhji-10" value="" style="endArrow=none;html=1;rounded=0;exitX=0;exitY=0.375;exitDx=0;exitDy=0;exitPerimeter=0;" parent="1" source="Jqyn0Rg7wcx-pCNSzhji-47" edge="1">
          <mxGeometry width="50" height="50" relative="1" as="geometry">
            <mxPoint x="260" y="650" as="sourcePoint" />
            <mxPoint x="260" y="230" as="targetPoint" />
            <Array as="points">
              <mxPoint x="260" y="620" />
            </Array>
          </mxGeometry>
        </mxCell>
        <mxCell id="Jqyn0Rg7wcx-pCNSzhji-21" style="edgeStyle=orthogonalEdgeStyle;rounded=0;orthogonalLoop=1;jettySize=auto;html=1;exitX=1;exitY=0.5;exitDx=0;exitDy=0;exitPerimeter=0;endArrow=none;endFill=0;entryX=0;entryY=0.375;entryDx=0;entryDy=0;entryPerimeter=0;" parent="1" source="Jqyn0Rg7wcx-pCNSzhji-11" target="Jqyn0Rg7wcx-pCNSzhji-41" edge="1">
          <mxGeometry relative="1" as="geometry">
            <mxPoint x="350" y="400" as="targetPoint" />
            <Array as="points">
              <mxPoint x="350" y="230" />
              <mxPoint x="350" y="520" />
            </Array>
          </mxGeometry>
        </mxCell>
        <mxCell id="Jqyn0Rg7wcx-pCNSzhji-11" value="" style="verticalLabelPosition=bottom;shadow=0;dashed=0;align=center;html=1;verticalAlign=top;shape=mxgraph.electrical.logic_gates.inverter_2" parent="1" vertex="1">
          <mxGeometry x="270" y="210" width="70" height="40" as="geometry" />
        </mxCell>
        <mxCell id="Jqyn0Rg7wcx-pCNSzhji-22" style="edgeStyle=orthogonalEdgeStyle;rounded=0;orthogonalLoop=1;jettySize=auto;html=1;exitDx=0;exitDy=0;exitPerimeter=0;endArrow=none;endFill=0;entryX=0;entryY=0.125;entryDx=0;entryDy=0;entryPerimeter=0;" parent="1" target="Jqyn0Rg7wcx-pCNSzhji-35" edge="1">
          <mxGeometry relative="1" as="geometry">
            <mxPoint x="360" y="420" as="targetPoint" />
            <mxPoint x="360" y="359" as="sourcePoint" />
            <Array as="points">
              <mxPoint x="360" y="200" />
              <mxPoint x="360" y="485" />
            </Array>
          </mxGeometry>
        </mxCell>
        <mxCell id="Jqyn0Rg7wcx-pCNSzhji-12" value="" style="verticalLabelPosition=bottom;shadow=0;dashed=0;align=center;html=1;verticalAlign=top;shape=mxgraph.electrical.logic_gates.inverter_2" parent="1" vertex="1">
          <mxGeometry x="270" y="160" width="70" height="40" as="geometry" />
        </mxCell>
        <mxCell id="Jqyn0Rg7wcx-pCNSzhji-13" value="" style="endArrow=none;html=1;rounded=0;exitDx=0;exitDy=0;exitPerimeter=0;" parent="1" source="Jqyn0Rg7wcx-pCNSzhji-14" edge="1">
          <mxGeometry width="50" height="50" relative="1" as="geometry">
            <mxPoint x="250" y="650" as="sourcePoint" />
            <mxPoint x="270" y="180" as="targetPoint" />
            <Array as="points" />
          </mxGeometry>
        </mxCell>
        <mxCell id="Jqyn0Rg7wcx-pCNSzhji-15" value="" style="shape=waypoint;sketch=0;fillStyle=solid;size=6;pointerEvents=1;points=[];fillColor=none;resizable=0;rotatable=0;perimeter=centerPerimeter;snapToPoint=1;" parent="1" vertex="1">
          <mxGeometry x="250" y="220" width="20" height="20" as="geometry" />
        </mxCell>
        <mxCell id="Jqyn0Rg7wcx-pCNSzhji-17" value="&lt;i&gt;adr0&lt;/i&gt;" style="text;html=1;align=center;verticalAlign=middle;whiteSpace=wrap;rounded=0;" parent="1" vertex="1">
          <mxGeometry x="180" y="165" width="60" height="30" as="geometry" />
        </mxCell>
        <mxCell id="Jqyn0Rg7wcx-pCNSzhji-18" value="&lt;i&gt;adr1&lt;/i&gt;" style="text;html=1;align=center;verticalAlign=middle;whiteSpace=wrap;rounded=0;" parent="1" vertex="1">
          <mxGeometry x="180" y="215" width="60" height="30" as="geometry" />
        </mxCell>
        <mxCell id="Jqyn0Rg7wcx-pCNSzhji-19" value="&lt;i&gt;adr2&lt;/i&gt;" style="text;html=1;align=center;verticalAlign=middle;whiteSpace=wrap;rounded=0;" parent="1" vertex="1">
          <mxGeometry x="180" y="265" width="60" height="30" as="geometry" />
        </mxCell>
        <mxCell id="Jqyn0Rg7wcx-pCNSzhji-23" value="" style="endArrow=oval;html=1;rounded=0;startArrow=none;startFill=0;endFill=0;exitX=0;exitY=0.875;exitDx=0;exitDy=0;exitPerimeter=0;" parent="1" source="Jqyn0Rg7wcx-pCNSzhji-47" edge="1">
          <mxGeometry width="50" height="50" relative="1" as="geometry">
            <mxPoint x="380" y="400" as="sourcePoint" />
            <mxPoint x="230" y="130" as="targetPoint" />
            <Array as="points">
              <mxPoint x="380" y="640" />
              <mxPoint x="380" y="130" />
            </Array>
          </mxGeometry>
        </mxCell>
        <mxCell id="Jqyn0Rg7wcx-pCNSzhji-24" value="&lt;i&gt;valid&lt;/i&gt;" style="text;html=1;align=center;verticalAlign=middle;whiteSpace=wrap;rounded=0;" parent="1" vertex="1">
          <mxGeometry x="175" y="120" width="60" height="20" as="geometry" />
        </mxCell>
        <mxCell id="Jqyn0Rg7wcx-pCNSzhji-26" style="edgeStyle=orthogonalEdgeStyle;rounded=0;orthogonalLoop=1;jettySize=auto;html=1;exitX=1;exitY=0.5;exitDx=0;exitDy=0;exitPerimeter=0;endArrow=oval;endFill=0;" parent="1" source="Jqyn0Rg7wcx-pCNSzhji-25" edge="1">
          <mxGeometry relative="1" as="geometry">
            <mxPoint x="480" y="275.0952380952381" as="targetPoint" />
          </mxGeometry>
        </mxCell>
        <mxCell id="Jqyn0Rg7wcx-pCNSzhji-49" style="edgeStyle=orthogonalEdgeStyle;rounded=0;orthogonalLoop=1;jettySize=auto;html=1;exitDx=0;exitDy=0;exitPerimeter=0;endArrow=none;endFill=0;" parent="1" source="Jqyn0Rg7wcx-pCNSzhji-56" edge="1">
          <mxGeometry relative="1" as="geometry">
            <mxPoint x="380" y="290.28571428571433" as="targetPoint" />
          </mxGeometry>
        </mxCell>
        <mxCell id="Jqyn0Rg7wcx-pCNSzhji-64" style="edgeStyle=orthogonalEdgeStyle;rounded=0;orthogonalLoop=1;jettySize=auto;html=1;exitX=0;exitY=0.125;exitDx=0;exitDy=0;exitPerimeter=0;endArrow=none;endFill=0;" parent="1" source="Jqyn0Rg7wcx-pCNSzhji-25" edge="1">
          <mxGeometry relative="1" as="geometry">
            <mxPoint x="360" y="260" as="targetPoint" />
          </mxGeometry>
        </mxCell>
        <mxCell id="Jqyn0Rg7wcx-pCNSzhji-81" style="edgeStyle=orthogonalEdgeStyle;rounded=0;orthogonalLoop=1;jettySize=auto;html=1;exitX=0;exitY=0.625;exitDx=0;exitDy=0;exitPerimeter=0;endArrow=none;endFill=0;" parent="1" source="Jqyn0Rg7wcx-pCNSzhji-25" edge="1">
          <mxGeometry relative="1" as="geometry">
            <mxPoint x="340" y="280.0344827586207" as="targetPoint" />
          </mxGeometry>
        </mxCell>
        <mxCell id="Jqyn0Rg7wcx-pCNSzhji-82" style="edgeStyle=orthogonalEdgeStyle;rounded=0;orthogonalLoop=1;jettySize=auto;html=1;exitX=0;exitY=0.375;exitDx=0;exitDy=0;exitPerimeter=0;endArrow=none;endFill=0;" parent="1" source="Jqyn0Rg7wcx-pCNSzhji-25" edge="1">
          <mxGeometry relative="1" as="geometry">
            <mxPoint x="350.0000000000001" y="269.88888888888886" as="targetPoint" />
          </mxGeometry>
        </mxCell>
        <mxCell id="Jqyn0Rg7wcx-pCNSzhji-25" value="" style="verticalLabelPosition=bottom;shadow=0;dashed=0;align=center;html=1;verticalAlign=top;shape=mxgraph.electrical.logic_gates.logic_gate;operation=and;numInputs=4;" parent="1" vertex="1">
          <mxGeometry x="400" y="255" width="70" height="40" as="geometry" />
        </mxCell>
        <mxCell id="Jqyn0Rg7wcx-pCNSzhji-27" value="&lt;i&gt;sel_0&lt;/i&gt;" style="text;html=1;align=center;verticalAlign=middle;whiteSpace=wrap;rounded=0;" parent="1" vertex="1">
          <mxGeometry x="470" y="260" width="60" height="30" as="geometry" />
        </mxCell>
        <mxCell id="Jqyn0Rg7wcx-pCNSzhji-28" style="edgeStyle=orthogonalEdgeStyle;rounded=0;orthogonalLoop=1;jettySize=auto;html=1;exitX=1;exitY=0.5;exitDx=0;exitDy=0;exitPerimeter=0;endArrow=oval;endFill=0;" parent="1" source="Jqyn0Rg7wcx-pCNSzhji-29" edge="1">
          <mxGeometry relative="1" as="geometry">
            <mxPoint x="480" y="325.0952380952381" as="targetPoint" />
          </mxGeometry>
        </mxCell>
        <mxCell id="Jqyn0Rg7wcx-pCNSzhji-50" style="edgeStyle=orthogonalEdgeStyle;rounded=0;orthogonalLoop=1;jettySize=auto;html=1;exitX=0;exitY=0.875;exitDx=0;exitDy=0;exitPerimeter=0;endArrow=none;endFill=0;" parent="1" source="Jqyn0Rg7wcx-pCNSzhji-29" edge="1">
          <mxGeometry relative="1" as="geometry">
            <mxPoint x="380" y="340" as="targetPoint" />
          </mxGeometry>
        </mxCell>
        <mxCell id="Jqyn0Rg7wcx-pCNSzhji-65" style="edgeStyle=orthogonalEdgeStyle;rounded=0;orthogonalLoop=1;jettySize=auto;html=1;exitX=0;exitY=0.125;exitDx=0;exitDy=0;exitPerimeter=0;endArrow=none;endFill=0;" parent="1" source="Jqyn0Rg7wcx-pCNSzhji-29" edge="1">
          <mxGeometry relative="1" as="geometry">
            <mxPoint x="360" y="310.28571428571433" as="targetPoint" />
          </mxGeometry>
        </mxCell>
        <mxCell id="Jqyn0Rg7wcx-pCNSzhji-91" style="edgeStyle=orthogonalEdgeStyle;rounded=0;orthogonalLoop=1;jettySize=auto;html=1;exitX=0;exitY=0.375;exitDx=0;exitDy=0;exitPerimeter=0;endArrow=none;endFill=0;" parent="1" source="Jqyn0Rg7wcx-pCNSzhji-29" edge="1">
          <mxGeometry relative="1" as="geometry">
            <mxPoint x="350" y="320" as="targetPoint" />
          </mxGeometry>
        </mxCell>
        <mxCell id="Jqyn0Rg7wcx-pCNSzhji-106" style="edgeStyle=orthogonalEdgeStyle;rounded=0;orthogonalLoop=1;jettySize=auto;html=1;exitX=0;exitY=0.625;exitDx=0;exitDy=0;exitPerimeter=0;endArrow=none;endFill=0;" parent="1" source="Jqyn0Rg7wcx-pCNSzhji-29" edge="1">
          <mxGeometry relative="1" as="geometry">
            <mxPoint x="250" y="330" as="targetPoint" />
          </mxGeometry>
        </mxCell>
        <mxCell id="Jqyn0Rg7wcx-pCNSzhji-29" value="" style="verticalLabelPosition=bottom;shadow=0;dashed=0;align=center;html=1;verticalAlign=top;shape=mxgraph.electrical.logic_gates.logic_gate;operation=and;numInputs=4;" parent="1" vertex="1">
          <mxGeometry x="400" y="305" width="70" height="40" as="geometry" />
        </mxCell>
        <mxCell id="Jqyn0Rg7wcx-pCNSzhji-30" value="&lt;i&gt;sel_1&lt;/i&gt;" style="text;html=1;align=center;verticalAlign=middle;whiteSpace=wrap;rounded=0;" parent="1" vertex="1">
          <mxGeometry x="470" y="310" width="60" height="30" as="geometry" />
        </mxCell>
        <mxCell id="Jqyn0Rg7wcx-pCNSzhji-31" style="edgeStyle=orthogonalEdgeStyle;rounded=0;orthogonalLoop=1;jettySize=auto;html=1;exitX=1;exitY=0.5;exitDx=0;exitDy=0;exitPerimeter=0;endArrow=oval;endFill=0;" parent="1" source="Jqyn0Rg7wcx-pCNSzhji-32" edge="1">
          <mxGeometry relative="1" as="geometry">
            <mxPoint x="480" y="375" as="targetPoint" />
          </mxGeometry>
        </mxCell>
        <mxCell id="Jqyn0Rg7wcx-pCNSzhji-51" style="edgeStyle=orthogonalEdgeStyle;rounded=0;orthogonalLoop=1;jettySize=auto;html=1;exitX=0;exitY=0.875;exitDx=0;exitDy=0;exitPerimeter=0;endArrow=none;endFill=0;" parent="1" source="Jqyn0Rg7wcx-pCNSzhji-32" edge="1">
          <mxGeometry relative="1" as="geometry">
            <mxPoint x="380" y="389.1428571428571" as="targetPoint" />
          </mxGeometry>
        </mxCell>
        <mxCell id="Jqyn0Rg7wcx-pCNSzhji-80" style="edgeStyle=orthogonalEdgeStyle;rounded=0;orthogonalLoop=1;jettySize=auto;html=1;exitX=0;exitY=0.125;exitDx=0;exitDy=0;exitPerimeter=0;endArrow=none;endFill=0;" parent="1" source="Jqyn0Rg7wcx-pCNSzhji-32" edge="1">
          <mxGeometry relative="1" as="geometry">
            <mxPoint x="360" y="359.9441340782123" as="targetPoint" />
          </mxGeometry>
        </mxCell>
        <mxCell id="Jqyn0Rg7wcx-pCNSzhji-98" style="edgeStyle=orthogonalEdgeStyle;rounded=0;orthogonalLoop=1;jettySize=auto;html=1;exitX=0;exitY=0.375;exitDx=0;exitDy=0;exitPerimeter=0;endArrow=none;endFill=0;" parent="1" source="Jqyn0Rg7wcx-pCNSzhji-32" edge="1">
          <mxGeometry relative="1" as="geometry">
            <mxPoint x="260" y="370" as="targetPoint" />
          </mxGeometry>
        </mxCell>
        <mxCell id="Jqyn0Rg7wcx-pCNSzhji-101" style="edgeStyle=orthogonalEdgeStyle;rounded=0;orthogonalLoop=1;jettySize=auto;html=1;exitX=0;exitY=0.625;exitDx=0;exitDy=0;exitPerimeter=0;endArrow=none;endFill=0;" parent="1" source="Jqyn0Rg7wcx-pCNSzhji-32" edge="1">
          <mxGeometry relative="1" as="geometry">
            <mxPoint x="340" y="380" as="targetPoint" />
          </mxGeometry>
        </mxCell>
        <mxCell id="Jqyn0Rg7wcx-pCNSzhji-32" value="" style="verticalLabelPosition=bottom;shadow=0;dashed=0;align=center;html=1;verticalAlign=top;shape=mxgraph.electrical.logic_gates.logic_gate;operation=and;numInputs=4;" parent="1" vertex="1">
          <mxGeometry x="400" y="355" width="70" height="40" as="geometry" />
        </mxCell>
        <mxCell id="Jqyn0Rg7wcx-pCNSzhji-33" value="&lt;i&gt;sel_2&lt;/i&gt;" style="text;html=1;align=center;verticalAlign=middle;whiteSpace=wrap;rounded=0;" parent="1" vertex="1">
          <mxGeometry x="470" y="360" width="60" height="30" as="geometry" />
        </mxCell>
        <mxCell id="Jqyn0Rg7wcx-pCNSzhji-34" style="edgeStyle=orthogonalEdgeStyle;rounded=0;orthogonalLoop=1;jettySize=auto;html=1;exitX=1;exitY=0.5;exitDx=0;exitDy=0;exitPerimeter=0;endArrow=oval;endFill=0;" parent="1" source="Jqyn0Rg7wcx-pCNSzhji-35" edge="1">
          <mxGeometry relative="1" as="geometry">
            <mxPoint x="480" y="425" as="targetPoint" />
          </mxGeometry>
        </mxCell>
        <mxCell id="Jqyn0Rg7wcx-pCNSzhji-52" style="edgeStyle=orthogonalEdgeStyle;rounded=0;orthogonalLoop=1;jettySize=auto;html=1;exitX=0;exitY=0.875;exitDx=0;exitDy=0;exitPerimeter=0;endArrow=none;endFill=0;" parent="1" source="Jqyn0Rg7wcx-pCNSzhji-35" edge="1">
          <mxGeometry relative="1" as="geometry">
            <mxPoint x="380" y="440" as="targetPoint" />
          </mxGeometry>
        </mxCell>
        <mxCell id="Jqyn0Rg7wcx-pCNSzhji-97" style="edgeStyle=orthogonalEdgeStyle;rounded=0;orthogonalLoop=1;jettySize=auto;html=1;exitX=0;exitY=0.375;exitDx=0;exitDy=0;exitPerimeter=0;endArrow=none;endFill=0;" parent="1" source="Jqyn0Rg7wcx-pCNSzhji-35" edge="1">
          <mxGeometry relative="1" as="geometry">
            <mxPoint x="260" y="420" as="targetPoint" />
          </mxGeometry>
        </mxCell>
        <mxCell id="Jqyn0Rg7wcx-pCNSzhji-107" style="edgeStyle=orthogonalEdgeStyle;rounded=0;orthogonalLoop=1;jettySize=auto;html=1;exitX=0;exitY=0.625;exitDx=0;exitDy=0;exitPerimeter=0;endArrow=none;endFill=0;" parent="1" source="Jqyn0Rg7wcx-pCNSzhji-35" edge="1">
          <mxGeometry relative="1" as="geometry">
            <mxPoint x="250" y="430" as="targetPoint" />
          </mxGeometry>
        </mxCell>
        <mxCell id="Jqyn0Rg7wcx-pCNSzhji-35" value="" style="verticalLabelPosition=bottom;shadow=0;dashed=0;align=center;html=1;verticalAlign=top;shape=mxgraph.electrical.logic_gates.logic_gate;operation=and;numInputs=4;" parent="1" vertex="1">
          <mxGeometry x="400" y="405" width="70" height="40" as="geometry" />
        </mxCell>
        <mxCell id="Jqyn0Rg7wcx-pCNSzhji-36" value="&lt;i&gt;sel_3&lt;/i&gt;" style="text;html=1;align=center;verticalAlign=middle;whiteSpace=wrap;rounded=0;" parent="1" vertex="1">
          <mxGeometry x="470" y="410" width="60" height="30" as="geometry" />
        </mxCell>
        <mxCell id="Jqyn0Rg7wcx-pCNSzhji-37" style="edgeStyle=orthogonalEdgeStyle;rounded=0;orthogonalLoop=1;jettySize=auto;html=1;exitX=1;exitY=0.5;exitDx=0;exitDy=0;exitPerimeter=0;endArrow=oval;endFill=0;" parent="1" source="Jqyn0Rg7wcx-pCNSzhji-38" edge="1">
          <mxGeometry relative="1" as="geometry">
            <mxPoint x="480" y="475.0952380952381" as="targetPoint" />
          </mxGeometry>
        </mxCell>
        <mxCell id="Jqyn0Rg7wcx-pCNSzhji-53" style="edgeStyle=orthogonalEdgeStyle;rounded=0;orthogonalLoop=1;jettySize=auto;html=1;exitX=0;exitY=0.875;exitDx=0;exitDy=0;exitPerimeter=0;endArrow=none;endFill=0;" parent="1" source="Jqyn0Rg7wcx-pCNSzhji-38" edge="1">
          <mxGeometry relative="1" as="geometry">
            <mxPoint x="380" y="490.28571428571433" as="targetPoint" />
          </mxGeometry>
        </mxCell>
        <mxCell id="Jqyn0Rg7wcx-pCNSzhji-85" style="edgeStyle=orthogonalEdgeStyle;rounded=0;orthogonalLoop=1;jettySize=auto;html=1;exitX=0;exitY=0.125;exitDx=0;exitDy=0;exitPerimeter=0;endArrow=none;endFill=0;" parent="1" source="Jqyn0Rg7wcx-pCNSzhji-38" edge="1">
          <mxGeometry relative="1" as="geometry">
            <mxPoint x="270" y="460.0344827586207" as="targetPoint" />
          </mxGeometry>
        </mxCell>
        <mxCell id="Jqyn0Rg7wcx-pCNSzhji-92" style="edgeStyle=orthogonalEdgeStyle;rounded=0;orthogonalLoop=1;jettySize=auto;html=1;exitX=0;exitY=0.375;exitDx=0;exitDy=0;exitPerimeter=0;endArrow=none;endFill=0;" parent="1" source="Jqyn0Rg7wcx-pCNSzhji-38" edge="1">
          <mxGeometry relative="1" as="geometry">
            <mxPoint x="350" y="470" as="targetPoint" />
          </mxGeometry>
        </mxCell>
        <mxCell id="Jqyn0Rg7wcx-pCNSzhji-102" style="edgeStyle=orthogonalEdgeStyle;rounded=0;orthogonalLoop=1;jettySize=auto;html=1;exitX=0;exitY=0.625;exitDx=0;exitDy=0;exitPerimeter=0;endArrow=none;endFill=0;" parent="1" source="Jqyn0Rg7wcx-pCNSzhji-38" edge="1">
          <mxGeometry relative="1" as="geometry">
            <mxPoint x="340" y="480" as="targetPoint" />
          </mxGeometry>
        </mxCell>
        <mxCell id="Jqyn0Rg7wcx-pCNSzhji-38" value="" style="verticalLabelPosition=bottom;shadow=0;dashed=0;align=center;html=1;verticalAlign=top;shape=mxgraph.electrical.logic_gates.logic_gate;operation=and;numInputs=4;" parent="1" vertex="1">
          <mxGeometry x="400" y="455" width="70" height="40" as="geometry" />
        </mxCell>
        <mxCell id="Jqyn0Rg7wcx-pCNSzhji-39" value="&lt;i&gt;sel_4&lt;/i&gt;" style="text;html=1;align=center;verticalAlign=middle;whiteSpace=wrap;rounded=0;" parent="1" vertex="1">
          <mxGeometry x="470" y="460" width="60" height="30" as="geometry" />
        </mxCell>
        <mxCell id="Jqyn0Rg7wcx-pCNSzhji-40" style="edgeStyle=orthogonalEdgeStyle;rounded=0;orthogonalLoop=1;jettySize=auto;html=1;exitX=1;exitY=0.5;exitDx=0;exitDy=0;exitPerimeter=0;endArrow=oval;endFill=0;" parent="1" source="Jqyn0Rg7wcx-pCNSzhji-41" edge="1">
          <mxGeometry relative="1" as="geometry">
            <mxPoint x="480" y="525.0952380952381" as="targetPoint" />
          </mxGeometry>
        </mxCell>
        <mxCell id="Jqyn0Rg7wcx-pCNSzhji-54" style="edgeStyle=orthogonalEdgeStyle;rounded=0;orthogonalLoop=1;jettySize=auto;html=1;exitX=0;exitY=0.875;exitDx=0;exitDy=0;exitPerimeter=0;endArrow=none;endFill=0;" parent="1" source="Jqyn0Rg7wcx-pCNSzhji-41" edge="1">
          <mxGeometry relative="1" as="geometry">
            <mxPoint x="380" y="540" as="targetPoint" />
          </mxGeometry>
        </mxCell>
        <mxCell id="Jqyn0Rg7wcx-pCNSzhji-86" style="edgeStyle=orthogonalEdgeStyle;rounded=0;orthogonalLoop=1;jettySize=auto;html=1;exitX=0;exitY=0.125;exitDx=0;exitDy=0;exitPerimeter=0;endArrow=none;endFill=0;" parent="1" source="Jqyn0Rg7wcx-pCNSzhji-41" edge="1">
          <mxGeometry relative="1" as="geometry">
            <mxPoint x="270" y="509.68965517241384" as="targetPoint" />
          </mxGeometry>
        </mxCell>
        <mxCell id="Jqyn0Rg7wcx-pCNSzhji-108" style="edgeStyle=orthogonalEdgeStyle;rounded=0;orthogonalLoop=1;jettySize=auto;html=1;exitX=0;exitY=0.625;exitDx=0;exitDy=0;exitPerimeter=0;endArrow=none;endFill=0;" parent="1" source="Jqyn0Rg7wcx-pCNSzhji-41" edge="1">
          <mxGeometry relative="1" as="geometry">
            <mxPoint x="250" y="530" as="targetPoint" />
          </mxGeometry>
        </mxCell>
        <mxCell id="Jqyn0Rg7wcx-pCNSzhji-41" value="" style="verticalLabelPosition=bottom;shadow=0;dashed=0;align=center;html=1;verticalAlign=top;shape=mxgraph.electrical.logic_gates.logic_gate;operation=and;numInputs=4;" parent="1" vertex="1">
          <mxGeometry x="400" y="505" width="70" height="40" as="geometry" />
        </mxCell>
        <mxCell id="Jqyn0Rg7wcx-pCNSzhji-42" value="&lt;i&gt;sel_5&lt;/i&gt;" style="text;html=1;align=center;verticalAlign=middle;whiteSpace=wrap;rounded=0;" parent="1" vertex="1">
          <mxGeometry x="470" y="510" width="60" height="30" as="geometry" />
        </mxCell>
        <mxCell id="Jqyn0Rg7wcx-pCNSzhji-43" style="edgeStyle=orthogonalEdgeStyle;rounded=0;orthogonalLoop=1;jettySize=auto;html=1;exitX=1;exitY=0.5;exitDx=0;exitDy=0;exitPerimeter=0;endArrow=oval;endFill=0;" parent="1" source="Jqyn0Rg7wcx-pCNSzhji-44" edge="1">
          <mxGeometry relative="1" as="geometry">
            <mxPoint x="480" y="575" as="targetPoint" />
            <Array as="points">
              <mxPoint x="480" y="575" />
            </Array>
          </mxGeometry>
        </mxCell>
        <mxCell id="Jqyn0Rg7wcx-pCNSzhji-55" style="edgeStyle=orthogonalEdgeStyle;rounded=0;orthogonalLoop=1;jettySize=auto;html=1;exitX=0;exitY=0.875;exitDx=0;exitDy=0;exitPerimeter=0;endArrow=none;endFill=0;" parent="1" source="Jqyn0Rg7wcx-pCNSzhji-44" edge="1">
          <mxGeometry relative="1" as="geometry">
            <mxPoint x="380" y="589.1428571428571" as="targetPoint" />
          </mxGeometry>
        </mxCell>
        <mxCell id="Jqyn0Rg7wcx-pCNSzhji-87" style="edgeStyle=orthogonalEdgeStyle;rounded=0;orthogonalLoop=1;jettySize=auto;html=1;exitX=0;exitY=0.125;exitDx=0;exitDy=0;exitPerimeter=0;endArrow=none;endFill=0;" parent="1" source="Jqyn0Rg7wcx-pCNSzhji-44" edge="1">
          <mxGeometry relative="1" as="geometry">
            <mxPoint x="270" y="560.0344827586207" as="targetPoint" />
          </mxGeometry>
        </mxCell>
        <mxCell id="Jqyn0Rg7wcx-pCNSzhji-95" style="edgeStyle=orthogonalEdgeStyle;rounded=0;orthogonalLoop=1;jettySize=auto;html=1;exitX=0;exitY=0.375;exitDx=0;exitDy=0;exitPerimeter=0;endArrow=none;endFill=0;" parent="1" source="Jqyn0Rg7wcx-pCNSzhji-44" edge="1">
          <mxGeometry relative="1" as="geometry">
            <mxPoint x="260" y="570" as="targetPoint" />
          </mxGeometry>
        </mxCell>
        <mxCell id="Jqyn0Rg7wcx-pCNSzhji-44" value="" style="verticalLabelPosition=bottom;shadow=0;dashed=0;align=center;html=1;verticalAlign=top;shape=mxgraph.electrical.logic_gates.logic_gate;operation=and;numInputs=4;" parent="1" vertex="1">
          <mxGeometry x="400" y="555" width="70" height="40" as="geometry" />
        </mxCell>
        <mxCell id="Jqyn0Rg7wcx-pCNSzhji-45" value="&lt;i&gt;sel_6&lt;/i&gt;" style="text;html=1;align=center;verticalAlign=middle;whiteSpace=wrap;rounded=0;" parent="1" vertex="1">
          <mxGeometry x="470" y="560" width="60" height="30" as="geometry" />
        </mxCell>
        <mxCell id="Jqyn0Rg7wcx-pCNSzhji-46" style="edgeStyle=orthogonalEdgeStyle;rounded=0;orthogonalLoop=1;jettySize=auto;html=1;exitX=1;exitY=0.5;exitDx=0;exitDy=0;exitPerimeter=0;endArrow=oval;endFill=0;" parent="1" source="Jqyn0Rg7wcx-pCNSzhji-47" edge="1">
          <mxGeometry relative="1" as="geometry">
            <mxPoint x="480" y="625" as="targetPoint" />
          </mxGeometry>
        </mxCell>
        <mxCell id="Jqyn0Rg7wcx-pCNSzhji-47" value="" style="verticalLabelPosition=bottom;shadow=0;dashed=0;align=center;html=1;verticalAlign=top;shape=mxgraph.electrical.logic_gates.logic_gate;operation=and;numInputs=4;" parent="1" vertex="1">
          <mxGeometry x="400" y="605" width="70" height="40" as="geometry" />
        </mxCell>
        <mxCell id="Jqyn0Rg7wcx-pCNSzhji-48" value="&lt;i&gt;sel_7&lt;/i&gt;" style="text;html=1;align=center;verticalAlign=middle;whiteSpace=wrap;rounded=0;" parent="1" vertex="1">
          <mxGeometry x="470" y="610" width="60" height="30" as="geometry" />
        </mxCell>
        <mxCell id="Jqyn0Rg7wcx-pCNSzhji-57" value="" style="edgeStyle=orthogonalEdgeStyle;rounded=0;orthogonalLoop=1;jettySize=auto;html=1;exitX=0;exitY=0.875;exitDx=0;exitDy=0;exitPerimeter=0;endArrow=none;endFill=0;" parent="1" source="Jqyn0Rg7wcx-pCNSzhji-25" target="Jqyn0Rg7wcx-pCNSzhji-56" edge="1">
          <mxGeometry relative="1" as="geometry">
            <mxPoint x="380" y="290.28571428571433" as="targetPoint" />
            <mxPoint x="400" y="290" as="sourcePoint" />
          </mxGeometry>
        </mxCell>
        <mxCell id="Jqyn0Rg7wcx-pCNSzhji-56" value="" style="shape=waypoint;sketch=0;fillStyle=solid;size=6;pointerEvents=1;points=[];fillColor=none;resizable=0;rotatable=0;perimeter=centerPerimeter;snapToPoint=1;" parent="1" vertex="1">
          <mxGeometry x="370" y="280" width="20" height="20" as="geometry" />
        </mxCell>
        <mxCell id="Jqyn0Rg7wcx-pCNSzhji-58" value="" style="shape=waypoint;sketch=0;fillStyle=solid;size=6;pointerEvents=1;points=[];fillColor=none;resizable=0;rotatable=0;perimeter=centerPerimeter;snapToPoint=1;" parent="1" vertex="1">
          <mxGeometry x="370" y="330" width="20" height="20" as="geometry" />
        </mxCell>
        <mxCell id="Jqyn0Rg7wcx-pCNSzhji-59" value="" style="shape=waypoint;sketch=0;fillStyle=solid;size=6;pointerEvents=1;points=[];fillColor=none;resizable=0;rotatable=0;perimeter=centerPerimeter;snapToPoint=1;" parent="1" vertex="1">
          <mxGeometry x="370" y="380" width="20" height="20" as="geometry" />
        </mxCell>
        <mxCell id="Jqyn0Rg7wcx-pCNSzhji-60" value="" style="shape=waypoint;sketch=0;fillStyle=solid;size=6;pointerEvents=1;points=[];fillColor=none;resizable=0;rotatable=0;perimeter=centerPerimeter;snapToPoint=1;" parent="1" vertex="1">
          <mxGeometry x="370" y="430" width="20" height="20" as="geometry" />
        </mxCell>
        <mxCell id="Jqyn0Rg7wcx-pCNSzhji-61" value="" style="shape=waypoint;sketch=0;fillStyle=solid;size=6;pointerEvents=1;points=[];fillColor=none;resizable=0;rotatable=0;perimeter=centerPerimeter;snapToPoint=1;" parent="1" vertex="1">
          <mxGeometry x="370" y="480" width="20" height="20" as="geometry" />
        </mxCell>
        <mxCell id="Jqyn0Rg7wcx-pCNSzhji-62" value="" style="shape=waypoint;sketch=0;fillStyle=solid;size=6;pointerEvents=1;points=[];fillColor=none;resizable=0;rotatable=0;perimeter=centerPerimeter;snapToPoint=1;" parent="1" vertex="1">
          <mxGeometry x="370" y="530" width="20" height="20" as="geometry" />
        </mxCell>
        <mxCell id="Jqyn0Rg7wcx-pCNSzhji-63" value="" style="shape=waypoint;sketch=0;fillStyle=solid;size=6;pointerEvents=1;points=[];fillColor=none;resizable=0;rotatable=0;perimeter=centerPerimeter;snapToPoint=1;" parent="1" vertex="1">
          <mxGeometry x="370" y="580" width="20" height="20" as="geometry" />
        </mxCell>
        <mxCell id="Jqyn0Rg7wcx-pCNSzhji-67" value="" style="edgeStyle=orthogonalEdgeStyle;rounded=0;orthogonalLoop=1;jettySize=auto;html=1;exitX=0;exitY=0.5;exitDx=0;exitDy=0;exitPerimeter=0;endArrow=oval;endFill=0;" parent="1" source="Jqyn0Rg7wcx-pCNSzhji-5" target="Jqyn0Rg7wcx-pCNSzhji-16" edge="1">
          <mxGeometry relative="1" as="geometry">
            <mxPoint x="230" y="280" as="targetPoint" />
            <mxPoint x="270" y="280" as="sourcePoint" />
          </mxGeometry>
        </mxCell>
        <mxCell id="Jqyn0Rg7wcx-pCNSzhji-16" value="" style="shape=waypoint;sketch=0;fillStyle=solid;size=6;pointerEvents=1;points=[];fillColor=none;resizable=0;rotatable=0;perimeter=centerPerimeter;snapToPoint=1;" parent="1" vertex="1">
          <mxGeometry x="240" y="270" width="20" height="20" as="geometry" />
        </mxCell>
        <mxCell id="Jqyn0Rg7wcx-pCNSzhji-68" value="" style="endArrow=none;html=1;rounded=0;exitX=0;exitY=0.125;exitDx=0;exitDy=0;exitPerimeter=0;" parent="1" source="Jqyn0Rg7wcx-pCNSzhji-47" target="Jqyn0Rg7wcx-pCNSzhji-14" edge="1">
          <mxGeometry width="50" height="50" relative="1" as="geometry">
            <mxPoint x="400" y="665" as="sourcePoint" />
            <mxPoint x="270" y="180" as="targetPoint" />
            <Array as="points">
              <mxPoint x="270" y="610" />
            </Array>
          </mxGeometry>
        </mxCell>
        <mxCell id="Jqyn0Rg7wcx-pCNSzhji-14" value="" style="shape=waypoint;sketch=0;fillStyle=solid;size=6;pointerEvents=1;points=[];fillColor=none;resizable=0;rotatable=0;perimeter=centerPerimeter;snapToPoint=1;" parent="1" vertex="1">
          <mxGeometry x="260" y="170" width="20" height="20" as="geometry" />
        </mxCell>
        <mxCell id="Jqyn0Rg7wcx-pCNSzhji-69" value="" style="shape=waypoint;sketch=0;fillStyle=solid;size=6;pointerEvents=1;points=[];fillColor=none;resizable=0;rotatable=0;perimeter=centerPerimeter;snapToPoint=1;" parent="1" vertex="1">
          <mxGeometry x="350" y="250" width="20" height="20" as="geometry" />
        </mxCell>
        <mxCell id="Jqyn0Rg7wcx-pCNSzhji-70" value="" style="shape=waypoint;sketch=0;fillStyle=solid;size=6;pointerEvents=1;points=[];fillColor=none;resizable=0;rotatable=0;perimeter=centerPerimeter;snapToPoint=1;" parent="1" vertex="1">
          <mxGeometry x="350" y="300" width="20" height="20" as="geometry" />
        </mxCell>
        <mxCell id="Jqyn0Rg7wcx-pCNSzhji-72" value="" style="edgeStyle=orthogonalEdgeStyle;rounded=0;orthogonalLoop=1;jettySize=auto;html=1;exitX=1;exitY=0.5;exitDx=0;exitDy=0;exitPerimeter=0;endArrow=none;endFill=0;entryDx=0;entryDy=0;entryPerimeter=0;" parent="1" source="Jqyn0Rg7wcx-pCNSzhji-12" target="Jqyn0Rg7wcx-pCNSzhji-71" edge="1">
          <mxGeometry relative="1" as="geometry">
            <mxPoint x="400" y="465" as="targetPoint" />
            <mxPoint x="340" y="180" as="sourcePoint" />
            <Array as="points" />
          </mxGeometry>
        </mxCell>
        <mxCell id="Jqyn0Rg7wcx-pCNSzhji-71" value="" style="shape=waypoint;sketch=0;fillStyle=solid;size=6;pointerEvents=1;points=[];fillColor=none;resizable=0;rotatable=0;perimeter=centerPerimeter;snapToPoint=1;" parent="1" vertex="1">
          <mxGeometry x="350" y="349" width="20" height="20" as="geometry" />
        </mxCell>
        <mxCell id="Jqyn0Rg7wcx-pCNSzhji-83" value="" style="shape=waypoint;sketch=0;fillStyle=solid;size=6;pointerEvents=1;points=[];fillColor=none;resizable=0;rotatable=0;perimeter=centerPerimeter;snapToPoint=1;" parent="1" vertex="1">
          <mxGeometry x="340" y="260" width="20" height="20" as="geometry" />
        </mxCell>
        <mxCell id="Jqyn0Rg7wcx-pCNSzhji-84" value="" style="shape=waypoint;sketch=0;fillStyle=solid;size=6;pointerEvents=1;points=[];fillColor=none;resizable=0;rotatable=0;perimeter=centerPerimeter;snapToPoint=1;" parent="1" vertex="1">
          <mxGeometry x="330" y="270" width="20" height="20" as="geometry" />
        </mxCell>
        <mxCell id="Jqyn0Rg7wcx-pCNSzhji-88" value="" style="shape=waypoint;sketch=0;fillStyle=solid;size=6;pointerEvents=1;points=[];fillColor=none;resizable=0;rotatable=0;perimeter=centerPerimeter;snapToPoint=1;" parent="1" vertex="1">
          <mxGeometry x="260" y="450" width="20" height="20" as="geometry" />
        </mxCell>
        <mxCell id="Jqyn0Rg7wcx-pCNSzhji-89" value="" style="shape=waypoint;sketch=0;fillStyle=solid;size=6;pointerEvents=1;points=[];fillColor=none;resizable=0;rotatable=0;perimeter=centerPerimeter;snapToPoint=1;" parent="1" vertex="1">
          <mxGeometry x="260" y="500" width="20" height="20" as="geometry" />
        </mxCell>
        <mxCell id="Jqyn0Rg7wcx-pCNSzhji-90" value="" style="shape=waypoint;sketch=0;fillStyle=solid;size=6;pointerEvents=1;points=[];fillColor=none;resizable=0;rotatable=0;perimeter=centerPerimeter;snapToPoint=1;" parent="1" vertex="1">
          <mxGeometry x="260" y="550" width="20" height="20" as="geometry" />
        </mxCell>
        <mxCell id="Jqyn0Rg7wcx-pCNSzhji-93" value="" style="shape=waypoint;sketch=0;fillStyle=solid;size=6;pointerEvents=1;points=[];fillColor=none;resizable=0;rotatable=0;perimeter=centerPerimeter;snapToPoint=1;" parent="1" vertex="1">
          <mxGeometry x="340" y="460" width="20" height="20" as="geometry" />
        </mxCell>
        <mxCell id="Jqyn0Rg7wcx-pCNSzhji-94" value="" style="shape=waypoint;sketch=0;fillStyle=solid;size=6;pointerEvents=1;points=[];fillColor=none;resizable=0;rotatable=0;perimeter=centerPerimeter;snapToPoint=1;" parent="1" vertex="1">
          <mxGeometry x="340" y="310" width="20" height="20" as="geometry" />
        </mxCell>
        <mxCell id="Jqyn0Rg7wcx-pCNSzhji-96" value="" style="shape=waypoint;sketch=0;fillStyle=solid;size=6;pointerEvents=1;points=[];fillColor=none;resizable=0;rotatable=0;perimeter=centerPerimeter;snapToPoint=1;" parent="1" vertex="1">
          <mxGeometry x="250" y="560" width="20" height="20" as="geometry" />
        </mxCell>
        <mxCell id="Jqyn0Rg7wcx-pCNSzhji-99" value="" style="shape=waypoint;sketch=0;fillStyle=solid;size=6;pointerEvents=1;points=[];fillColor=none;resizable=0;rotatable=0;perimeter=centerPerimeter;snapToPoint=1;" parent="1" vertex="1">
          <mxGeometry x="250" y="410" width="20" height="20" as="geometry" />
        </mxCell>
        <mxCell id="Jqyn0Rg7wcx-pCNSzhji-100" value="" style="shape=waypoint;sketch=0;fillStyle=solid;size=6;pointerEvents=1;points=[];fillColor=none;resizable=0;rotatable=0;perimeter=centerPerimeter;snapToPoint=1;" parent="1" vertex="1">
          <mxGeometry x="250" y="360" width="20" height="20" as="geometry" />
        </mxCell>
        <mxCell id="Jqyn0Rg7wcx-pCNSzhji-103" value="" style="shape=waypoint;sketch=0;fillStyle=solid;size=6;pointerEvents=1;points=[];fillColor=none;resizable=0;rotatable=0;perimeter=centerPerimeter;snapToPoint=1;" parent="1" vertex="1">
          <mxGeometry x="330" y="470" width="20" height="20" as="geometry" />
        </mxCell>
        <mxCell id="Jqyn0Rg7wcx-pCNSzhji-104" value="" style="edgeStyle=orthogonalEdgeStyle;rounded=0;orthogonalLoop=1;jettySize=auto;html=1;exitX=1;exitY=0.5;exitDx=0;exitDy=0;exitPerimeter=0;endArrow=none;endFill=0;entryDx=0;entryDy=0;entryPerimeter=0;" parent="1" source="Jqyn0Rg7wcx-pCNSzhji-5" target="Jqyn0Rg7wcx-pCNSzhji-105" edge="1">
          <mxGeometry relative="1" as="geometry">
            <mxPoint x="400" y="580" as="targetPoint" />
            <mxPoint x="340" y="280" as="sourcePoint" />
            <Array as="points">
              <mxPoint x="340" y="310" />
              <mxPoint x="340" y="310" />
            </Array>
          </mxGeometry>
        </mxCell>
        <mxCell id="Jqyn0Rg7wcx-pCNSzhji-105" value="" style="shape=waypoint;sketch=0;fillStyle=solid;size=6;pointerEvents=1;points=[];fillColor=none;resizable=0;rotatable=0;perimeter=centerPerimeter;snapToPoint=1;" parent="1" vertex="1">
          <mxGeometry x="330" y="370" width="20" height="20" as="geometry" />
        </mxCell>
        <mxCell id="Jqyn0Rg7wcx-pCNSzhji-109" value="" style="shape=waypoint;sketch=0;fillStyle=solid;size=6;pointerEvents=1;points=[];fillColor=none;resizable=0;rotatable=0;perimeter=centerPerimeter;snapToPoint=1;" parent="1" vertex="1">
          <mxGeometry x="240" y="420" width="20" height="20" as="geometry" />
        </mxCell>
        <mxCell id="Jqyn0Rg7wcx-pCNSzhji-110" value="" style="shape=waypoint;sketch=0;fillStyle=solid;size=6;pointerEvents=1;points=[];fillColor=none;resizable=0;rotatable=0;perimeter=centerPerimeter;snapToPoint=1;" parent="1" vertex="1">
          <mxGeometry x="240" y="520" width="20" height="20" as="geometry" />
        </mxCell>
        <mxCell id="Jqyn0Rg7wcx-pCNSzhji-112" value="" style="endArrow=none;html=1;rounded=0;exitX=0;exitY=0.625;exitDx=0;exitDy=0;exitPerimeter=0;" parent="1" source="Jqyn0Rg7wcx-pCNSzhji-47" target="Jqyn0Rg7wcx-pCNSzhji-111" edge="1">
          <mxGeometry width="50" height="50" relative="1" as="geometry">
            <mxPoint x="400" y="630" as="sourcePoint" />
            <mxPoint x="250" y="280" as="targetPoint" />
            <Array as="points">
              <mxPoint x="250" y="630" />
            </Array>
          </mxGeometry>
        </mxCell>
        <mxCell id="Jqyn0Rg7wcx-pCNSzhji-111" value="" style="shape=waypoint;sketch=0;fillStyle=solid;size=6;pointerEvents=1;points=[];fillColor=none;resizable=0;rotatable=0;perimeter=centerPerimeter;snapToPoint=1;" parent="1" vertex="1">
          <mxGeometry x="240" y="320" width="20" height="20" as="geometry" />
        </mxCell>
      </root>
    </mxGraphModel>
  </diagram>
</mxfile>
